<svg width="140" height="40" viewBox="0 0 140 40" fill="none" xmlns="http://www.w3.org/2000/svg">
<g clip-path="url(#clip0_3_7)">
<path fill-rule="evenodd" clip-rule="evenodd" d="M14.6667 15.7576C14.6667 16.6703 13.2795 17.4652 11.23 17.8788C13.2795 18.2923 14.6667 19.0873 14.6667 20C14.6667 20.9127 13.2795 21.7077 11.23 22.1212C13.2795 22.5348 14.6667 23.3297 14.6667 24.2424C14.6667 25.5813 11.6819 26.6667 8 26.6667C4.3181 26.6667 1.33333 25.5813 1.33333 24.2424C1.33333 23.3297 2.72048 22.5348 4.77 22.1212C2.72048 21.7077 1.33333 20.9127 1.33333 20C1.33333 19.0873 2.72048 18.2923 4.77 17.8788C2.72048 17.4652 1.33333 16.6703 1.33333 15.7576C1.33333 14.4187 4.3181 13.3333 8 13.3333C11.6819 13.3333 14.6667 14.4187 14.6667 15.7576Z" fill="#0D141C"/>
</g>
<path d="M27.074 16.236C26.558 16.236 26.096 16.338 25.688 16.542C25.292 16.746 24.956 17.04 24.68 17.424C24.404 17.796 24.194 18.252 24.05 18.792C23.918 19.332 23.852 19.938 23.852 20.61C23.852 21.522 23.96 22.302 24.176 22.95C24.404 23.586 24.758 24.072 25.238 24.408C25.718 24.744 26.33 24.912 27.074 24.912C27.602 24.912 28.124 24.852 28.64 24.732C29.168 24.612 29.738 24.444 30.35 24.228V26.514C29.786 26.742 29.228 26.91 28.676 27.018C28.124 27.126 27.506 27.18 26.822 27.18C25.502 27.18 24.41 26.91 23.546 26.37C22.694 25.818 22.064 25.05 21.656 24.066C21.248 23.07 21.044 21.912 21.044 20.592C21.044 19.62 21.176 18.732 21.44 17.928C21.704 17.112 22.088 16.41 22.592 15.822C23.108 15.234 23.738 14.778 24.482 14.454C25.238 14.13 26.102 13.968 27.074 13.968C27.71 13.968 28.346 14.052 28.982 14.22C29.63 14.376 30.248 14.592 30.836 14.868L29.954 17.082C29.474 16.854 28.988 16.656 28.496 16.488C28.016 16.32 27.542 16.236 27.074 16.236ZM41.0009 19.188H37.7789V27H35.0969V19.188H31.8749V17.172H41.0009V19.188ZM48.2862 16.992C49.3902 16.992 50.2842 17.424 50.9682 18.288C51.6522 19.14 51.9942 20.4 51.9942 22.068C51.9942 23.184 51.8322 24.126 51.5082 24.894C51.1842 25.65 50.7402 26.22 50.1762 26.604C49.6122 26.988 48.9582 27.18 48.2142 27.18C47.7462 27.18 47.3382 27.12 46.9902 27C46.6542 26.88 46.3662 26.724 46.1262 26.532C45.8862 26.34 45.6762 26.136 45.4962 25.92H45.3522C45.4002 26.148 45.4362 26.388 45.4602 26.64C45.4842 26.88 45.4962 27.12 45.4962 27.36V31.32H42.8142V17.172H44.9922L45.3702 18.45H45.4962C45.6762 18.186 45.8922 17.946 46.1442 17.73C46.3962 17.502 46.6962 17.322 47.0442 17.19C47.4042 17.058 47.8182 16.992 48.2862 16.992ZM47.4222 19.134C46.9542 19.134 46.5822 19.23 46.3062 19.422C46.0302 19.614 45.8262 19.908 45.6942 20.304C45.5742 20.688 45.5082 21.174 45.4962 21.762V22.05C45.4962 22.686 45.5562 23.226 45.6762 23.67C45.7962 24.102 46.0002 24.432 46.2882 24.66C46.5762 24.888 46.9662 25.002 47.4582 25.002C47.8662 25.002 48.2022 24.888 48.4662 24.66C48.7302 24.432 48.9282 24.096 49.0602 23.652C49.1922 23.208 49.2582 22.668 49.2582 22.032C49.2582 21.072 49.1082 20.352 48.8082 19.872C48.5202 19.38 48.0582 19.134 47.4222 19.134ZM63.1328 22.068C63.1328 22.884 63.0188 23.61 62.7908 24.246C62.5748 24.882 62.2568 25.422 61.8368 25.866C61.4288 26.298 60.9308 26.628 60.3428 26.856C59.7548 27.072 59.0888 27.18 58.3448 27.18C57.6608 27.18 57.0248 27.072 56.4368 26.856C55.8608 26.628 55.3628 26.298 54.9428 25.866C54.5228 25.422 54.1928 24.882 53.9528 24.246C53.7248 23.61 53.6108 22.884 53.6108 22.068C53.6108 20.976 53.8028 20.058 54.1868 19.314C54.5708 18.558 55.1228 17.982 55.8428 17.586C56.5628 17.19 57.4148 16.992 58.3988 16.992C59.3228 16.992 60.1388 17.19 60.8468 17.586C61.5548 17.982 62.1128 18.558 62.5208 19.314C62.9288 20.058 63.1328 20.976 63.1328 22.068ZM56.3468 22.068C56.3468 22.716 56.4128 23.262 56.5448 23.706C56.6888 24.138 56.9108 24.468 57.2108 24.696C57.5108 24.912 57.9008 25.02 58.3808 25.02C58.8608 25.02 59.2448 24.912 59.5328 24.696C59.8328 24.468 60.0488 24.138 60.1808 23.706C60.3248 23.262 60.3968 22.716 60.3968 22.068C60.3968 21.42 60.3248 20.88 60.1808 20.448C60.0488 20.016 59.8328 19.692 59.5328 19.476C59.2328 19.26 58.8428 19.152 58.3628 19.152C57.6548 19.152 57.1388 19.398 56.8148 19.89C56.5028 20.37 56.3468 21.096 56.3468 22.068ZM74.7633 12.942C74.7033 13.566 74.5293 14.118 74.2413 14.598C73.9533 15.066 73.5033 15.432 72.8913 15.696C72.2793 15.96 71.4573 16.092 70.4253 16.092C69.3693 16.092 68.5413 15.966 67.9413 15.714C67.3533 15.45 66.9333 15.084 66.6813 14.616C66.4293 14.148 66.2793 13.59 66.2313 12.942H68.6253C68.6853 13.602 68.8533 14.04 69.1293 14.256C69.4053 14.472 69.8553 14.58 70.4793 14.58C70.9953 14.58 71.4153 14.466 71.7393 14.238C72.0753 13.998 72.2733 13.566 72.3333 12.942H74.7633ZM67.9413 21.06C67.9413 21.264 67.9293 21.516 67.9053 21.816C67.8933 22.116 67.8753 22.422 67.8513 22.734C67.8393 23.046 67.8213 23.322 67.7973 23.562C67.7733 23.802 67.7553 23.97 67.7433 24.066L72.2793 17.172H75.5013V27H72.9093V23.076C72.9093 22.752 72.9213 22.398 72.9453 22.014C72.9693 21.618 72.9933 21.252 73.0173 20.916C73.0533 20.568 73.0773 20.304 73.0893 20.124L68.5713 27H65.3493V17.172H67.9413V21.06ZM83.9744 16.236C83.4584 16.236 82.9964 16.338 82.5884 16.542C82.1924 16.746 81.8564 17.04 81.5804 17.424C81.3044 17.796 81.0944 18.252 80.9504 18.792C80.8184 19.332 80.7524 19.938 80.7524 20.61C80.7524 21.522 80.8604 22.302 81.0764 22.95C81.3044 23.586 81.6584 24.072 82.1384 24.408C82.6184 24.744 83.2304 24.912 83.9744 24.912C84.5024 24.912 85.0244 24.852 85.5404 24.732C86.0684 24.612 86.6384 24.444 87.2504 24.228V26.514C86.6864 26.742 86.1284 26.91 85.5764 27.018C85.0244 27.126 84.4064 27.18 83.7224 27.18C82.4024 27.18 81.3104 26.91 80.4464 26.37C79.5944 25.818 78.9644 25.05 78.5564 24.066C78.1484 23.07 77.9444 21.912 77.9444 20.592C77.9444 19.62 78.0764 18.732 78.3404 17.928C78.6044 17.112 78.9884 16.41 79.4924 15.822C80.0084 15.234 80.6384 14.778 81.3824 14.454C82.1384 14.13 83.0024 13.968 83.9744 13.968C84.6104 13.968 85.2464 14.052 85.8824 14.22C86.5304 14.376 87.1484 14.592 87.7364 14.868L86.8544 17.082C86.3744 16.854 85.8884 16.656 85.3964 16.488C84.9164 16.32 84.4424 16.236 83.9744 16.236ZM102.149 17.172V27H99.6473V22.176C99.6473 21.696 99.6533 21.228 99.6653 20.772C99.6893 20.316 99.7193 19.896 99.7553 19.512H99.7013L96.9833 27H94.9673L92.2133 19.494H92.1413C92.1893 19.89 92.2193 20.316 92.2313 20.772C92.2553 21.216 92.2673 21.708 92.2673 22.248V27H89.7653V17.172H93.5633L96.0113 23.832L98.4953 17.172H102.149ZM109.003 16.992C109.915 16.992 110.695 17.166 111.343 17.514C112.003 17.862 112.513 18.366 112.873 19.026C113.233 19.686 113.413 20.496 113.413 21.456V22.752H107.077C107.101 23.508 107.323 24.102 107.743 24.534C108.175 24.966 108.769 25.182 109.525 25.182C110.161 25.182 110.737 25.122 111.253 25.002C111.769 24.87 112.303 24.672 112.855 24.408V26.478C112.375 26.718 111.865 26.892 111.325 27C110.797 27.12 110.155 27.18 109.399 27.18C108.415 27.18 107.545 27 106.789 26.64C106.033 26.268 105.439 25.71 105.007 24.966C104.575 24.222 104.359 23.286 104.359 22.158C104.359 21.006 104.551 20.052 104.935 19.296C105.331 18.528 105.877 17.952 106.573 17.568C107.269 17.184 108.079 16.992 109.003 16.992ZM109.021 18.9C108.505 18.9 108.073 19.068 107.725 19.404C107.389 19.74 107.191 20.262 107.131 20.97H110.893C110.893 20.574 110.821 20.22 110.677 19.908C110.545 19.596 110.341 19.35 110.065 19.17C109.789 18.99 109.441 18.9 109.021 18.9ZM119.584 27.18C118.612 27.18 117.784 27.006 117.1 26.658C116.416 26.298 115.894 25.746 115.534 25.002C115.174 24.258 114.994 23.304 114.994 22.14C114.994 20.94 115.198 19.962 115.606 19.206C116.014 18.45 116.578 17.892 117.298 17.532C118.03 17.172 118.87 16.992 119.818 16.992C120.49 16.992 121.072 17.058 121.564 17.19C122.068 17.322 122.506 17.478 122.878 17.658L122.086 19.728C121.666 19.56 121.27 19.422 120.898 19.314C120.538 19.206 120.178 19.152 119.818 19.152C119.35 19.152 118.96 19.266 118.648 19.494C118.336 19.71 118.102 20.04 117.946 20.484C117.802 20.916 117.73 21.462 117.73 22.122C117.73 22.77 117.808 23.31 117.964 23.742C118.132 24.162 118.372 24.48 118.684 24.696C118.996 24.9 119.374 25.002 119.818 25.002C120.382 25.002 120.88 24.93 121.312 24.786C121.744 24.63 122.164 24.42 122.572 24.156V26.442C122.164 26.706 121.732 26.892 121.276 27C120.832 27.12 120.268 27.18 119.584 27.18ZM127.426 21.06C127.426 21.264 127.414 21.516 127.39 21.816C127.378 22.116 127.36 22.422 127.336 22.734C127.324 23.046 127.306 23.322 127.282 23.562C127.258 23.802 127.24 23.97 127.228 24.066L131.764 17.172H134.986V27H132.394V23.076C132.394 22.752 132.406 22.398 132.43 22.014C132.454 21.618 132.478 21.252 132.502 20.916C132.538 20.568 132.562 20.304 132.574 20.124L128.056 27H124.834V17.172H127.426V21.06Z" fill="#0D141C"/>
<defs>
<clipPath id="clip0_3_7">
<rect width="16" height="16" fill="white" transform="translate(0 12)"/>
</clipPath>
</defs>
</svg>
